<?xml version="1.0" encoding="UTF-8"?>
<svg width="274px" height="46px" viewBox="0 0 274 46" version="1.1" xmlns="http://www.w3.org/2000/svg" xmlns:xlink="http://www.w3.org/1999/xlink">
    <title>Babsland</title>
    <defs>
        <linearGradient x1="50%" y1="9.72339527%" x2="50%" y2="83.9421453%" id="linearGradient-1">
            <stop stop-color="#FFC800" offset="0%"></stop>
            <stop stop-color="#FF6F00" offset="100%"></stop>
        </linearGradient>
        <path d="M0,32.25 L0,0.703125 L20.25,0 C21.5,0 22.671875,0.078125 23.765625,0.234375 C24.859375,0.390625 25.9648437,0.68359375 27.0820313,1.11328125 C28.1992188,1.54296875 29.1523437,2.09765625 29.9414063,2.77734375 C30.7304688,3.45703125 31.375,4.359375 31.875,5.484375 C32.375,6.609375 32.625,7.90625 32.625,9.375 C32.625,11.328125 32.1953125,12.9101562 31.3359375,14.1210938 C30.4765625,15.3320313 29.1875,16.40625 27.46875,17.34375 C29.484375,17.90625 31.0195313,18.8789063 32.0742187,20.2617188 C33.1289063,21.6445312 33.65625,23.390625 33.65625,25.5 C33.65625,27.0625 33.359375,28.4648438 32.765625,29.7070312 C32.171875,30.9492187 31.40625,31.9609375 30.46875,32.7421875 C29.53125,33.5234375 28.4296875,34.171875 27.1640625,34.6875 C25.8984375,35.203125 24.6445312,35.5664063 23.4023437,35.7773437 C22.1601562,35.9882813 20.890625,36.09375 19.59375,36.09375 C18.84375,36.09375 17.7148437,36.078125 16.2070313,36.046875 C14.6992188,36.015625 13.5625,36 12.796875,36 C8.453125,36 4.46875,36.0625 0.84375,36.1875 C0.328125,35.359375 0.046875,34.046875 0,32.25 Z M13.453125,8.53125 C13.453125,9.234375 13.4765625,10.28125 13.5234375,11.671875 C13.5703125,13.0625 13.59375,14.109375 13.59375,14.8125 C13.59375,15.109375 13.78125,15.28125 14.15625,15.328125 C14.375,15.296875 14.7539062,15.2460938 15.2929687,15.1757813 C15.8320312,15.1054688 16.2578125,15.046875 16.5703125,15 C16.8828125,14.953125 17.2617188,14.8398437 17.7070312,14.6601562 C18.1523438,14.4804688 18.5,14.265625 18.75,14.015625 C19,13.765625 19.21875,13.4023438 19.40625,12.9257813 C19.59375,12.4492187 19.6875,11.890625 19.6875,11.25 C19.6875,8.875 18.046875,7.6875 14.765625,7.6875 C14.109375,7.796875 13.7265625,7.90625 13.6171875,8.015625 C13.5078125,8.140625 13.453125,8.3125 13.453125,8.53125 Z M13.875,26.390625 C13.875,27.546875 13.9375,28.125 14.0625,28.125 L14.8125,28.125 C15.421875,28.125 15.9492188,28.1054688 16.3945312,28.0664063 C16.8398438,28.0273438 17.3203125,27.9296875 17.8359375,27.7734375 C18.3515625,27.6171875 18.765625,27.4023438 19.078125,27.1289063 C19.390625,26.8554688 19.65625,26.46875 19.875,25.96875 C20.09375,25.46875 20.203125,24.875 20.203125,24.1875 C20.203125,23.796875 20.1640625,23.4375 20.0859375,23.109375 C20.0078125,22.78125 19.8828125,22.5 19.7109375,22.265625 C19.5390625,22.03125 19.3710938,21.828125 19.2070313,21.65625 C19.0429688,21.484375 18.8085938,21.3398438 18.5039063,21.2226562 C18.1992188,21.1054688 17.9492188,21.0117188 17.7539062,20.9414062 C17.5585938,20.8710938 17.265625,20.8125 16.875,20.765625 C16.484375,20.71875 16.203125,20.6875 16.03125,20.671875 C15.859375,20.65625 15.5625,20.6367188 15.140625,20.6132812 C14.71875,20.5898438 14.453125,20.578125 14.34375,20.578125 L14.34375,21.46875 C14.328125,21.640625 14.2460938,22.21875 14.0976562,23.203125 C13.9492188,24.1875 13.875,24.96875 13.875,25.546875 L13.875,26.390625 Z" id="path-2"></path>
        <filter x="-22.3%" y="-15.2%" width="144.6%" height="141.4%" filterUnits="objectBoundingBox" id="filter-3">
            <feMorphology radius="0.5" operator="dilate" in="SourceAlpha" result="shadowSpreadOuter1"></feMorphology>
            <feOffset dx="0" dy="2" in="shadowSpreadOuter1" result="shadowOffsetOuter1"></feOffset>
            <feGaussianBlur stdDeviation="2" in="shadowOffsetOuter1" result="shadowBlurOuter1"></feGaussianBlur>
            <feComposite in="shadowBlurOuter1" in2="SourceAlpha" operator="out" result="shadowBlurOuter1"></feComposite>
            <feColorMatrix values="0 0 0 0 0   0 0 0 0 0   0 0 0 0 0  0 0 0 0.5 0" type="matrix" in="shadowBlurOuter1"></feColorMatrix>
        </filter>
        <filter x="-19.3%" y="-12.4%" width="138.6%" height="135.9%" filterUnits="objectBoundingBox" id="filter-4">
            <feGaussianBlur stdDeviation="1.5" in="SourceAlpha" result="shadowBlurInner1"></feGaussianBlur>
            <feOffset dx="0" dy="1" in="shadowBlurInner1" result="shadowOffsetInner1"></feOffset>
            <feComposite in="shadowOffsetInner1" in2="SourceAlpha" operator="arithmetic" k2="-1" k3="1" result="shadowInnerInner1"></feComposite>
            <feColorMatrix values="0 0 0 0 1   0 0 0 0 1   0 0 0 0 1  0 0 0 1 0" type="matrix" in="shadowInnerInner1"></feColorMatrix>
        </filter>
        <linearGradient x1="50%" y1="9.72339527%" x2="50%" y2="83.9421453%" id="linearGradient-5">
            <stop stop-color="#FFC800" offset="0%"></stop>
            <stop stop-color="#FF6F00" offset="100%"></stop>
        </linearGradient>
        <path d="M47.578125,29.625 C47.46875,29.984375 47.3632812,30.4570313 47.2617188,31.0429687 C47.1601563,31.6289063 47.0664062,32.0898438 46.9804688,32.4257812 C46.8945312,32.7617187 46.75,33.1132813 46.546875,33.4804687 C46.34375,33.8476562 46.0351563,34.1171875 45.6210938,34.2890625 C45.2070313,34.4609375 44.671875,34.546875 44.015625,34.546875 L33.890625,34.546875 L33.890625,33.75 C34.71875,31.265625 35.9257812,27.453125 37.5117187,22.3125 C39.0976562,17.171875 40.328125,13.28125 41.203125,10.640625 L41.203125,10.6875 C41.734375,9.171875 42.515625,6.796875 43.546875,3.5625 C43.5625,3.53125 43.5859375,3.4921875 43.6171875,3.4453125 C43.7578125,3.2109375 43.890625,3.03125 44.015625,2.90625 L56.671875,3 C58.828125,3 60.015625,3.1875 60.234375,3.5625 L60.234375,4.171875 C60.265625,4.3125 60.4375,4.671875 60.75,5.25 C62.265625,9.890625 63.375,13.265625 64.078125,15.375 L64.078125,15.65625 C64.140625,16.109375 64.28125,16.625 64.5,17.203125 C64.71875,17.78125 64.9804687,18.4023438 65.2851562,19.0664063 C65.5898438,19.7304688 65.8046875,20.25 65.9296875,20.625 L66.8671875,24 C67.4140625,25.8125 68.21875,28.234375 69.28125,31.265625 L69.28125,31.21875 L69.28125,31.6875 C69.328125,31.90625 69.4453125,32.203125 69.6328125,32.578125 C69.8203125,32.953125 69.9375,33.21875 69.984375,33.375 C69.984375,33.8125 69.8945313,34.09375 69.7148438,34.21875 C69.5351563,34.34375 69.1875,34.40625 68.671875,34.40625 L57.796875,34.40625 C57.53125,34.375 57.359375,34.3515625 57.28125,34.3359375 C57.203125,34.3203125 57.0820313,34.2890625 56.9179688,34.2421875 C56.7539063,34.1953125 56.6367187,34.1328125 56.5664062,34.0546875 C56.4960937,33.9765625 56.453125,33.875 56.4375,33.75 L55.546875,30.1875 C55.484375,29.890625 55.421875,29.7226563 55.359375,29.6835937 C55.296875,29.6445313 55.109375,29.625 54.796875,29.625 L47.578125,29.625 Z M53.859375,18.46875 C53.765625,18.03125 53.6289062,17.3242188 53.4492188,16.3476562 C53.2695312,15.3710938 53.09375,14.5195312 52.921875,13.7929688 C52.75,13.0664062 52.5625,12.390625 52.359375,11.765625 L52.359375,10.640625 C52.234375,10.3125 52.015625,10.078125 51.703125,9.9375 L51.703125,9.984375 C51.328125,10.0625 50.953125,11.109375 50.578125,13.125 L50.578125,14.25 C50.546875,14.359375 50.4765625,14.4609375 50.3671875,14.5546875 C50.2578125,14.6484375 50.203125,14.703125 50.203125,14.71875 C49.6875,17 49.265625,18.84375 48.9375,20.25 C48.9375,20.40625 48.8984375,20.6796875 48.8203125,21.0703125 C48.7421875,21.4609375 48.703125,21.6875 48.703125,21.75 L54.515625,21.75 C54.515625,21.34375 54.375,20.609375 54.09375,19.546875 L54.09375,19.03125 C54.078125,18.984375 54.0351562,18.8945313 53.9648438,18.7617188 C53.8945312,18.6289062 53.859375,18.53125 53.859375,18.46875 Z" id="path-6"></path>
        <filter x="-20.8%" y="-17.4%" width="141.5%" height="147.4%" filterUnits="objectBoundingBox" id="filter-7">
            <feMorphology radius="0.5" operator="dilate" in="SourceAlpha" result="shadowSpreadOuter1"></feMorphology>
            <feOffset dx="0" dy="2" in="shadowSpreadOuter1" result="shadowOffsetOuter1"></feOffset>
            <feGaussianBlur stdDeviation="2" in="shadowOffsetOuter1" result="shadowBlurOuter1"></feGaussianBlur>
            <feComposite in="shadowBlurOuter1" in2="SourceAlpha" operator="out" result="shadowBlurOuter1"></feComposite>
            <feColorMatrix values="0 0 0 0 0   0 0 0 0 0   0 0 0 0 0  0 0 0 0.5 0" type="matrix" in="shadowBlurOuter1"></feColorMatrix>
        </filter>
        <filter x="-18.0%" y="-14.2%" width="136.0%" height="141.1%" filterUnits="objectBoundingBox" id="filter-8">
            <feGaussianBlur stdDeviation="1.5" in="SourceAlpha" result="shadowBlurInner1"></feGaussianBlur>
            <feOffset dx="0" dy="1" in="shadowBlurInner1" result="shadowOffsetInner1"></feOffset>
            <feComposite in="shadowOffsetInner1" in2="SourceAlpha" operator="arithmetic" k2="-1" k3="1" result="shadowInnerInner1"></feComposite>
            <feColorMatrix values="0 0 0 0 1   0 0 0 0 1   0 0 0 0 1  0 0 0 1 0" type="matrix" in="shadowInnerInner1"></feColorMatrix>
        </filter>
        <linearGradient x1="50%" y1="9.72339527%" x2="50%" y2="83.9421453%" id="linearGradient-9">
            <stop stop-color="#FFC800" offset="0%"></stop>
            <stop stop-color="#FF6F00" offset="100%"></stop>
        </linearGradient>
        <path d="M96.140625,17.90625 C96.9375,17.90625 97.671875,18.15625 98.34375,18.65625 C99.015625,19.15625 99.5546875,19.7851563 99.9609375,20.5429687 C100.367188,21.3007812 100.683594,22.0898437 100.910156,22.9101563 C101.136719,23.7304688 101.25,24.5 101.25,25.21875 C101.1875,27.125 100.644531,28.7851563 99.6210938,30.1992187 C98.5976562,31.6132812 97.234375,32.625 95.53125,33.234375 L93.5625,34.40625 L71.4375,34.40625 L71.4375,2.90625 L89.25,2.90625 C92.78125,2.90625 95.578125,3.65625 97.640625,5.15625 C98.546875,5.75 99.234375,6.609375 99.703125,7.734375 C100.171875,8.859375 100.40625,10.046875 100.40625,11.296875 C100.40625,12.890625 100.058594,14.171875 99.3632813,15.140625 C98.6679688,16.109375 97.59375,17.03125 96.140625,17.90625 Z M84,20.90625 L83.0625,26.7421875 C83.0625,26.8046875 83.171875,26.8789062 83.390625,26.9648438 C83.609375,27.0507812 83.796875,27.109375 83.953125,27.140625 L85.78125,27.140625 C86.796875,27.0625 87.6132812,26.8085938 88.2304688,26.3789063 C88.8476562,25.9492188 89.15625,25.234375 89.15625,24.234375 C89.15625,23.875 89.1171875,23.546875 89.0390625,23.25 C88.9609375,22.953125 88.8632812,22.6953125 88.7460938,22.4765625 C88.6289062,22.2578125 88.46875,22.0625 88.265625,21.890625 C88.0625,21.71875 87.8710938,21.578125 87.6914062,21.46875 C87.5117188,21.359375 87.2734375,21.2695312 86.9765625,21.1992188 C86.6796875,21.1289062 86.4335938,21.0742188 86.2382812,21.0351562 C86.0429688,20.9960938 85.7851562,20.9648438 85.4648438,20.9414062 C85.1445312,20.9179688 84.8984375,20.90625 84.7265625,20.90625 C84.5546875,20.90625 84.3125,20.90625 84,20.90625 Z M83.53125,10.59375 C83.65625,11.296875 83.71875,12.109375 83.71875,13.03125 L83.71875,13.5 C83.71875,13.546875 83.7109375,13.625 83.6953125,13.734375 C83.6796875,13.84375 83.671875,13.921875 83.671875,13.96875 C83.671875,14.03125 83.6796875,14.1679688 83.6953125,14.3789062 C83.7109375,14.5898438 83.71875,14.765625 83.71875,14.90625 L83.71875,15.65625 C83.71875,15.828125 83.78125,15.9375 83.90625,15.984375 C84.3125,15.984375 84.6328125,15.9765625 84.8671875,15.9609375 C85.1015625,15.9453125 85.4414062,15.9140625 85.8867188,15.8671875 C86.3320312,15.8203125 86.6953125,15.7265625 86.9765625,15.5859375 C87.2578125,15.4453125 87.546875,15.2617188 87.84375,15.0351562 C88.140625,14.8085937 88.3632812,14.5 88.5117188,14.109375 C88.6601562,13.71875 88.734375,13.265625 88.734375,12.75 C88.734375,12.046875 88.5,11.4765625 88.03125,11.0390625 C87.5625,10.6015625 87.03125,10.3164062 86.4375,10.1835938 C85.84375,10.0507812 85.171875,9.984375 84.421875,9.984375 C84.359375,10.015625 84.1875,10.03125 83.90625,10.03125 L83.90625,9.984375 C83.65625,10.078125 83.53125,10.28125 83.53125,10.59375 Z" id="path-10"></path>
        <filter x="-25.2%" y="-17.5%" width="150.3%" height="147.6%" filterUnits="objectBoundingBox" id="filter-11">
            <feMorphology radius="0.5" operator="dilate" in="SourceAlpha" result="shadowSpreadOuter1"></feMorphology>
            <feOffset dx="0" dy="2" in="shadowSpreadOuter1" result="shadowOffsetOuter1"></feOffset>
            <feGaussianBlur stdDeviation="2" in="shadowOffsetOuter1" result="shadowBlurOuter1"></feGaussianBlur>
            <feComposite in="shadowBlurOuter1" in2="SourceAlpha" operator="out" result="shadowBlurOuter1"></feComposite>
            <feColorMatrix values="0 0 0 0 0   0 0 0 0 0   0 0 0 0 0  0 0 0 0.5 0" type="matrix" in="shadowBlurOuter1"></feColorMatrix>
        </filter>
        <filter x="-21.8%" y="-14.3%" width="143.6%" height="141.3%" filterUnits="objectBoundingBox" id="filter-12">
            <feGaussianBlur stdDeviation="1.5" in="SourceAlpha" result="shadowBlurInner1"></feGaussianBlur>
            <feOffset dx="0" dy="1" in="shadowBlurInner1" result="shadowOffsetInner1"></feOffset>
            <feComposite in="shadowOffsetInner1" in2="SourceAlpha" operator="arithmetic" k2="-1" k3="1" result="shadowInnerInner1"></feComposite>
            <feColorMatrix values="0 0 0 0 1   0 0 0 0 1   0 0 0 0 1  0 0 0 1 0" type="matrix" in="shadowInnerInner1"></feColorMatrix>
        </filter>
        <linearGradient x1="50%" y1="9.72339527%" x2="50%" y2="83.9421453%" id="linearGradient-13">
            <stop stop-color="#FFC800" offset="0%"></stop>
            <stop stop-color="#FF6F00" offset="100%"></stop>
        </linearGradient>
        <path d="M122.625,12.28125 C122.203125,12.28125 121.859375,12.21875 121.59375,12.09375 C121.328125,11.96875 121.117188,11.8125 120.960938,11.625 C120.804688,11.4375 120.628906,11.25 120.433594,11.0625 C120.238281,10.875 119.929688,10.71875 119.507813,10.59375 C119.085938,10.46875 118.546875,10.40625 117.890625,10.40625 C117.6875,10.40625 117.441406,10.4257813 117.152344,10.4648437 C116.863281,10.5039062 116.546875,10.609375 116.203125,10.78125 C115.859375,10.953125 115.6875,11.171875 115.6875,11.4375 C115.6875,11.734375 115.832031,11.9882813 116.121094,12.1992188 C116.410156,12.4101563 116.738281,12.5585938 117.105469,12.6445312 C117.472656,12.7304687 117.886719,12.8320312 118.347656,12.9492188 C118.808594,13.0664063 119.132813,13.171875 119.320312,13.265625 L122.765625,14.109375 C123.78125,14.390625 124.695313,14.6875 125.507812,15 C126.320312,15.3125 127.183594,15.7382813 128.097656,16.2773437 C129.011719,16.8164063 129.773438,17.4140625 130.382812,18.0703125 C130.992188,18.7265625 131.5,19.5507813 131.90625,20.5429688 C132.3125,21.5351562 132.515625,22.625 132.515625,23.8125 C132.515625,25.25 132.328125,26.53125 131.953125,27.65625 L131.953125,27.609375 C131.625,28.609375 131.164062,29.5039063 130.570312,30.2929687 C129.976562,31.0820313 129.273438,31.7382813 128.460938,32.2617187 C127.648438,32.7851563 126.828125,33.2226562 126,33.5742187 C125.171875,33.9257812 124.214844,34.2070313 123.128906,34.4179688 C122.042969,34.6289063 121.074219,34.7851562 120.222656,34.8867187 C119.371094,34.9882812 118.390625,35.078125 117.28125,35.15625 C112.359375,34.90625 109.0625,34.125 107.390625,32.8125 L107.390625,32.53125 C105.96875,31.46875 104.917969,30.3125 104.238281,29.0625 C103.558594,27.8125 103.15625,26.40625 103.03125,24.84375 C103.03125,24.46875 103.203125,24.28125 103.546875,24.28125 C103.640625,24.28125 103.78125,24.2890625 103.96875,24.3046875 C104.15625,24.3203125 104.296875,24.328125 104.390625,24.328125 L106.78125,24.328125 C107,24.296875 107.3125,24.28125 107.71875,24.28125 L108.328125,24.28125 C108.453125,24.28125 108.5625,24.296875 108.65625,24.328125 C109.5625,24.296875 111.109375,24.28125 113.296875,24.28125 L114.375,24.28125 C114.6875,24.28125 114.929687,24.375 115.101563,24.5625 C115.273438,24.75 115.410156,24.9804687 115.511719,25.2539063 C115.613281,25.5273437 115.730469,25.8007812 115.863281,26.0742188 C115.996094,26.3476562 116.234375,26.578125 116.578125,26.765625 C116.921875,26.953125 117.375,27.046875 117.9375,27.046875 C118.546875,27.046875 119.097656,26.8867188 119.589844,26.5664063 C120.082031,26.2460937 120.328125,25.78125 120.328125,25.171875 C120.328125,24.890625 120.195312,24.625 119.929688,24.375 C119.664063,24.125 119.265625,23.8984375 118.734375,23.6953125 C118.203125,23.4921875 117.730469,23.328125 117.316406,23.203125 C116.902344,23.078125 116.34375,22.9296875 115.640625,22.7578125 C114.9375,22.5859375 114.484375,22.46875 114.28125,22.40625 L112.875,22.40625 C109.484375,21.40625 107.042969,20.1367188 105.550781,18.5976562 C104.058594,17.0585938 103.3125,15.109375 103.3125,12.75 C103.3125,11.1875 103.605469,9.78125 104.191406,8.53125 C104.777344,7.28125 105.550781,6.2578125 106.511719,5.4609375 C107.472656,4.6640625 108.601562,3.99609375 109.898438,3.45703125 C111.195312,2.91796875 112.515625,2.53515625 113.859375,2.30859375 C115.203125,2.08203125 116.59375,1.96875 118.03125,1.96875 C120.578125,1.96875 122.941406,2.39453125 125.121094,3.24609375 C127.300781,4.09765625 128.953125,5.203125 130.078125,6.5625 C130.484375,6.96875 130.8125,7.484375 131.0625,8.109375 C131.3125,8.734375 131.472656,9.23046875 131.542969,9.59765625 C131.613281,9.96484375 131.703125,10.578125 131.8125,11.4375 L131.15625,12.375 L127.171875,12.375 C126.734375,12.375 126.007812,12.359375 124.992188,12.328125 C123.976562,12.296875 123.1875,12.28125 122.625,12.28125 Z" id="path-14"></path>
        <filter x="-25.5%" y="-16.6%" width="151.0%" height="145.2%" filterUnits="objectBoundingBox" id="filter-15">
            <feMorphology radius="0.5" operator="dilate" in="SourceAlpha" result="shadowSpreadOuter1"></feMorphology>
            <feOffset dx="0" dy="2" in="shadowSpreadOuter1" result="shadowOffsetOuter1"></feOffset>
            <feGaussianBlur stdDeviation="2" in="shadowOffsetOuter1" result="shadowBlurOuter1"></feGaussianBlur>
            <feComposite in="shadowBlurOuter1" in2="SourceAlpha" operator="out" result="shadowBlurOuter1"></feComposite>
            <feColorMatrix values="0 0 0 0 0   0 0 0 0 0   0 0 0 0 0  0 0 0 0.5 0" type="matrix" in="shadowBlurOuter1"></feColorMatrix>
        </filter>
        <filter x="-22.1%" y="-13.6%" width="144.2%" height="139.2%" filterUnits="objectBoundingBox" id="filter-16">
            <feGaussianBlur stdDeviation="1.5" in="SourceAlpha" result="shadowBlurInner1"></feGaussianBlur>
            <feOffset dx="0" dy="1" in="shadowBlurInner1" result="shadowOffsetInner1"></feOffset>
            <feComposite in="shadowOffsetInner1" in2="SourceAlpha" operator="arithmetic" k2="-1" k3="1" result="shadowInnerInner1"></feComposite>
            <feColorMatrix values="0 0 0 0 1   0 0 0 0 1   0 0 0 0 1  0 0 0 1 0" type="matrix" in="shadowInnerInner1"></feColorMatrix>
        </filter>
        <linearGradient x1="50%" y1="9.72339527%" x2="50%" y2="83.9421453%" id="linearGradient-17">
            <stop stop-color="#FFC800" offset="0%"></stop>
            <stop stop-color="#FF6F00" offset="100%"></stop>
        </linearGradient>
        <path d="M135.65625,34.5 C135.609375,34.4375 135.535156,34.3671875 135.433594,34.2890625 C135.332031,34.2109375 135.21875,34.0625 135.09375,33.84375 L135.09375,23.71875 C135.09375,22.390625 135.148438,20.3515625 135.257812,17.6015625 C135.367188,14.8515625 135.421875,12.765625 135.421875,11.34375 C135.421875,11.03125 135.390625,10.3671875 135.328125,9.3515625 C135.265625,8.3359375 135.234375,7.53125 135.234375,6.9375 C135.234375,4.734375 135.5,3.390625 136.03125,2.90625 C139.28125,2.96875 141.703125,3 143.296875,3 L145.546875,3 C146.078125,3 146.484375,3.015625 146.765625,3.046875 C146.796875,3.015625 146.875,3 147,3 C147.03125,3 147.167969,3.015625 147.410156,3.046875 C147.652344,3.078125 147.84375,3.09375 147.984375,3.09375 C148.375,3.140625 148.703125,3.46875 148.96875,4.078125 L148.96875,4.40625 C148.96875,4.578125 148.960938,4.828125 148.945312,5.15625 C148.929688,5.484375 148.921875,5.734375 148.921875,5.90625 L148.921875,6.9375 C148.90625,7.015625 148.808594,7.15234375 148.628906,7.34765625 C148.449219,7.54296875 148.359375,7.703125 148.359375,7.828125 L148.359375,24.9375 L158.296875,24.9375 C158.546875,24.9375 158.734375,24.9453125 158.859375,24.9609375 C158.984375,24.9765625 159.109375,25.046875 159.234375,25.171875 C159.359375,25.296875 159.421875,25.484375 159.421875,25.734375 L159.421875,33.5625 C159.296875,34.1875 158.546875,34.5 157.171875,34.5 L135.65625,34.5 Z" id="path-18"></path>
        <filter x="-30.8%" y="-17.1%" width="161.7%" height="147.2%" filterUnits="objectBoundingBox" id="filter-19">
            <feMorphology radius="0.5" operator="dilate" in="SourceAlpha" result="shadowSpreadOuter1"></feMorphology>
            <feOffset dx="0" dy="2" in="shadowSpreadOuter1" result="shadowOffsetOuter1"></feOffset>
            <feGaussianBlur stdDeviation="2" in="shadowOffsetOuter1" result="shadowBlurOuter1"></feGaussianBlur>
            <feComposite in="shadowBlurOuter1" in2="SourceAlpha" operator="out" result="shadowBlurOuter1"></feComposite>
            <feColorMatrix values="0 0 0 0 0   0 0 0 0 0   0 0 0 0 0  0 0 0 0.5 0" type="matrix" in="shadowBlurOuter1"></feColorMatrix>
        </filter>
        <filter x="-26.7%" y="-14.0%" width="153.4%" height="140.9%" filterUnits="objectBoundingBox" id="filter-20">
            <feGaussianBlur stdDeviation="1.5" in="SourceAlpha" result="shadowBlurInner1"></feGaussianBlur>
            <feOffset dx="0" dy="1" in="shadowBlurInner1" result="shadowOffsetInner1"></feOffset>
            <feComposite in="shadowOffsetInner1" in2="SourceAlpha" operator="arithmetic" k2="-1" k3="1" result="shadowInnerInner1"></feComposite>
            <feColorMatrix values="0 0 0 0 1   0 0 0 0 1   0 0 0 0 1  0 0 0 1 0" type="matrix" in="shadowInnerInner1"></feColorMatrix>
        </filter>
        <path d="M172.5,29.625 C172.390625,29.984375 172.285156,30.4570313 172.183594,31.0429687 C172.082031,31.6289063 171.988281,32.0898438 171.902344,32.4257812 C171.816406,32.7617187 171.671875,33.1132813 171.46875,33.4804687 C171.265625,33.8476562 170.957031,34.1171875 170.542969,34.2890625 C170.128906,34.4609375 169.59375,34.546875 168.9375,34.546875 L158.8125,34.546875 L158.8125,33.75 C159.640625,31.265625 160.847656,27.453125 162.433594,22.3125 C164.019531,17.171875 165.25,13.28125 166.125,10.640625 L166.125,10.6875 C166.65625,9.171875 167.4375,6.796875 168.46875,3.5625 C168.484375,3.53125 168.507812,3.4921875 168.539063,3.4453125 C168.679688,3.2109375 168.8125,3.03125 168.9375,2.90625 L181.59375,3 C183.75,3 184.9375,3.1875 185.15625,3.5625 L185.15625,4.171875 C185.1875,4.3125 185.359375,4.671875 185.671875,5.25 C187.1875,9.890625 188.296875,13.265625 189,15.375 L189,15.65625 C189.0625,16.109375 189.203125,16.625 189.421875,17.203125 C189.640625,17.78125 189.902344,18.4023438 190.207031,19.0664063 C190.511719,19.7304688 190.726562,20.25 190.851562,20.625 L191.789062,24 C192.335938,25.8125 193.140625,28.234375 194.203125,31.265625 L194.203125,31.21875 L194.203125,31.6875 C194.25,31.90625 194.367188,32.203125 194.554688,32.578125 C194.742188,32.953125 194.859375,33.21875 194.90625,33.375 C194.90625,33.8125 194.816406,34.09375 194.636719,34.21875 C194.457031,34.34375 194.109375,34.40625 193.59375,34.40625 L182.71875,34.40625 C182.453125,34.375 182.28125,34.3515625 182.203125,34.3359375 C182.125,34.3203125 182.003906,34.2890625 181.839844,34.2421875 C181.675781,34.1953125 181.558594,34.1328125 181.488281,34.0546875 C181.417969,33.9765625 181.375,33.875 181.359375,33.75 L180.46875,30.1875 C180.40625,29.890625 180.34375,29.7226563 180.28125,29.6835937 C180.21875,29.6445313 180.03125,29.625 179.71875,29.625 L172.5,29.625 Z M178.78125,18.46875 C178.6875,18.03125 178.550781,17.3242188 178.371094,16.3476562 C178.191406,15.3710938 178.015625,14.5195312 177.84375,13.7929688 C177.671875,13.0664062 177.484375,12.390625 177.28125,11.765625 L177.28125,10.640625 C177.15625,10.3125 176.9375,10.078125 176.625,9.9375 L176.625,9.984375 C176.25,10.0625 175.875,11.109375 175.5,13.125 L175.5,14.25 C175.46875,14.359375 175.398438,14.4609375 175.289062,14.5546875 C175.179688,14.6484375 175.125,14.703125 175.125,14.71875 C174.609375,17 174.1875,18.84375 173.859375,20.25 C173.859375,20.40625 173.820312,20.6796875 173.742188,21.0703125 C173.664062,21.4609375 173.625,21.6875 173.625,21.75 L179.4375,21.75 C179.4375,21.34375 179.296875,20.609375 179.015625,19.546875 L179.015625,19.03125 C179,18.984375 178.957031,18.8945313 178.886719,18.7617188 C178.816406,18.6289062 178.78125,18.53125 178.78125,18.46875 Z" id="path-21"></path>
        <filter x="-20.8%" y="-17.4%" width="141.5%" height="147.4%" filterUnits="objectBoundingBox" id="filter-22">
            <feMorphology radius="0.5" operator="dilate" in="SourceAlpha" result="shadowSpreadOuter1"></feMorphology>
            <feOffset dx="0" dy="2" in="shadowSpreadOuter1" result="shadowOffsetOuter1"></feOffset>
            <feGaussianBlur stdDeviation="2" in="shadowOffsetOuter1" result="shadowBlurOuter1"></feGaussianBlur>
            <feComposite in="shadowBlurOuter1" in2="SourceAlpha" operator="out" result="shadowBlurOuter1"></feComposite>
            <feColorMatrix values="0 0 0 0 0   0 0 0 0 0   0 0 0 0 0  0 0 0 0.5 0" type="matrix" in="shadowBlurOuter1"></feColorMatrix>
        </filter>
        <filter x="-18.0%" y="-14.2%" width="136.0%" height="141.1%" filterUnits="objectBoundingBox" id="filter-23">
            <feGaussianBlur stdDeviation="1.5" in="SourceAlpha" result="shadowBlurInner1"></feGaussianBlur>
            <feOffset dx="0" dy="1" in="shadowBlurInner1" result="shadowOffsetInner1"></feOffset>
            <feComposite in="shadowOffsetInner1" in2="SourceAlpha" operator="arithmetic" k2="-1" k3="1" result="shadowInnerInner1"></feComposite>
            <feColorMatrix values="0 0 0 0 1   0 0 0 0 1   0 0 0 0 1  0 0 0 1 0" type="matrix" in="shadowInnerInner1"></feColorMatrix>
        </filter>
        <linearGradient x1="50%" y1="9.72339527%" x2="50%" y2="83.9421453%" id="linearGradient-24">
            <stop stop-color="#FFC800" offset="0%"></stop>
            <stop stop-color="#FF6F00" offset="100%"></stop>
        </linearGradient>
        <path d="M227.484375,3.1875 C227.671875,3.25 227.816406,3.51953125 227.917969,3.99609375 C228.019531,4.47265625 228.078125,5.0703125 228.09375,5.7890625 C228.109375,6.5078125 228.109375,7.1953125 228.09375,7.8515625 C228.078125,8.5078125 228.058594,9.1796875 228.035156,9.8671875 C228.011719,10.5546875 228,10.984375 228,11.15625 C227.96875,11.78125 227.953125,12.65625 227.953125,13.78125 L227.953125,16.265625 C227.953125,17.359375 227.96875,18.859375 228,20.765625 C228.03125,22.671875 228.046875,24.078125 228.046875,24.984375 L228.046875,33.515625 C227.984375,34.046875 227.546875,34.3125 226.734375,34.3125 L213.609375,34.3125 C213.328125,34.25 212.96875,33.59375 212.53125,32.34375 C212.234375,31.515625 211.738281,30.15625 211.042969,28.265625 C210.347656,26.375 209.75,24.7148437 209.25,23.2851562 C208.75,21.8554688 208.296875,20.46875 207.890625,19.125 L207.890625,18.984375 L207.890625,19.125 C207.84375,20.15625 207.796875,21.6914062 207.75,23.7304687 C207.703125,25.7695313 207.65625,27.296875 207.609375,28.3125 L207.609375,33.09375 C207.609375,33.5625 207.554688,33.8867188 207.445312,34.0664062 C207.335938,34.2460938 207.046875,34.390625 206.578125,34.5 L196.921875,34.5 L195.890625,33.46875 C195.96875,30.875 196.03125,26.8125 196.078125,21.28125 C196.125,15.75 196.1875,11.65625 196.265625,9 L196.265625,3.9375 C196.421875,3.375 196.609375,3.09375 196.828125,3.09375 L196.828125,3.1875 C197.890625,3.1875 199.558594,3.15625 201.832031,3.09375 C204.105469,3.03125 205.8125,3 206.953125,3 L210.890625,3 C210.90625,3 210.929688,3.0078125 210.960938,3.0234375 C211.242188,3.1328125 211.398438,3.2578125 211.429688,3.3984375 L211.453125,3.5625 C212.015625,5.078125 212.585938,6.6484375 213.164062,8.2734375 C213.742188,9.8984375 214.429688,11.8632813 215.226562,14.1679687 C216.023438,16.4726562 216.578125,18.0625 216.890625,18.9375 L216.890625,15.46875 C217.203125,9.96875 217.359375,6.0625 217.359375,3.75 C217.359375,3.5 217.53125,3.34375 217.875,3.28125 C218.21875,3.21875 218.75,3.1875 219.46875,3.1875 L227.484375,3.1875 Z" id="path-25"></path>
        <filter x="-23.3%" y="-17.5%" width="146.6%" height="147.6%" filterUnits="objectBoundingBox" id="filter-26">
            <feMorphology radius="0.5" operator="dilate" in="SourceAlpha" result="shadowSpreadOuter1"></feMorphology>
            <feOffset dx="0" dy="2" in="shadowSpreadOuter1" result="shadowOffsetOuter1"></feOffset>
            <feGaussianBlur stdDeviation="2" in="shadowOffsetOuter1" result="shadowBlurOuter1"></feGaussianBlur>
            <feComposite in="shadowBlurOuter1" in2="SourceAlpha" operator="out" result="shadowBlurOuter1"></feComposite>
            <feColorMatrix values="0 0 0 0 0   0 0 0 0 0   0 0 0 0 0  0 0 0 0.5 0" type="matrix" in="shadowBlurOuter1"></feColorMatrix>
        </filter>
        <filter x="-20.2%" y="-14.3%" width="140.4%" height="141.3%" filterUnits="objectBoundingBox" id="filter-27">
            <feGaussianBlur stdDeviation="1.5" in="SourceAlpha" result="shadowBlurInner1"></feGaussianBlur>
            <feOffset dx="0" dy="1" in="shadowBlurInner1" result="shadowOffsetInner1"></feOffset>
            <feComposite in="shadowOffsetInner1" in2="SourceAlpha" operator="arithmetic" k2="-1" k3="1" result="shadowInnerInner1"></feComposite>
            <feColorMatrix values="0 0 0 0 1   0 0 0 0 1   0 0 0 0 1  0 0 0 1 0" type="matrix" in="shadowInnerInner1"></feColorMatrix>
        </filter>
        <linearGradient x1="50%" y1="9.72339527%" x2="50%" y2="83.9421453%" id="linearGradient-28">
            <stop stop-color="#FFC800" offset="0%"></stop>
            <stop stop-color="#FF6F00" offset="100%"></stop>
        </linearGradient>
        <path d="M245.625,2.90625 C247.765625,2.90625 249.691406,3.046875 251.402344,3.328125 C253.113281,3.609375 254.753906,4.109375 256.324219,4.828125 C257.894531,5.546875 259.203125,6.484375 260.25,7.640625 C261.296875,8.796875 262.128906,10.296875 262.746094,12.140625 C263.363281,13.984375 263.671875,16.125 263.671875,18.5625 C263.671875,20.34375 263.460938,22.0039063 263.039062,23.5429688 C262.617188,25.0820313 262.039062,26.40625 261.304688,27.515625 C260.570312,28.625 259.730469,29.6132813 258.785156,30.4804688 C257.839844,31.3476563 256.8125,32.0546875 255.703125,32.6015625 C254.59375,33.1484375 253.484375,33.5703125 252.375,33.8671875 C251.265625,34.1640625 250.15625,34.34375 249.046875,34.40625 L232.96875,34.40625 L232.96875,3.28125 C233.015625,3.28125 233.101562,3.2890625 233.226562,3.3046875 C233.351562,3.3203125 233.4375,3.328125 233.484375,3.328125 C234.15625,3.328125 235.175781,3.2578125 236.542969,3.1171875 C237.910156,2.9765625 238.9375,2.90625 239.625,2.90625 L245.625,2.90625 Z M245.90625,27.09375 C246.703125,27.09375 247.40625,26.9648438 248.015625,26.7070313 C248.625,26.4492188 249.113281,26.078125 249.480469,25.59375 C249.847656,25.109375 250.152344,24.6015625 250.394531,24.0703125 C250.636719,23.5390625 250.8125,22.9140625 250.921875,22.1953125 C251.03125,21.4765625 251.105469,20.8476562 251.144531,20.3085938 C251.183594,19.7695312 251.203125,19.15625 251.203125,18.46875 L251.203125,16.78125 C251.1875,16.671875 251.140625,16.140625 251.0625,15.1875 C250.984375,14.234375 250.8125,13.421875 250.546875,12.75 C250.296875,12.265625 250.019531,11.8476562 249.714844,11.4960938 C249.410156,11.1445312 249.109375,10.8710938 248.8125,10.6757812 C248.515625,10.4804688 248.167969,10.3320312 247.769531,10.2304688 C247.371094,10.1289062 247.007812,10.0625 246.679688,10.03125 C246.351562,10 245.953125,9.984375 245.484375,9.984375 L245.484375,10.5 L244.78125,10.5 L244.78125,27.09375 L245.90625,27.09375 Z" id="path-29"></path>
        <filter x="-24.4%" y="-17.5%" width="148.9%" height="147.6%" filterUnits="objectBoundingBox" id="filter-30">
            <feMorphology radius="0.5" operator="dilate" in="SourceAlpha" result="shadowSpreadOuter1"></feMorphology>
            <feOffset dx="0" dy="2" in="shadowSpreadOuter1" result="shadowOffsetOuter1"></feOffset>
            <feGaussianBlur stdDeviation="2" in="shadowOffsetOuter1" result="shadowBlurOuter1"></feGaussianBlur>
            <feComposite in="shadowBlurOuter1" in2="SourceAlpha" operator="out" result="shadowBlurOuter1"></feComposite>
            <feColorMatrix values="0 0 0 0 0   0 0 0 0 0   0 0 0 0 0  0 0 0 0.5 0" type="matrix" in="shadowBlurOuter1"></feColorMatrix>
        </filter>
        <filter x="-21.2%" y="-14.3%" width="142.3%" height="141.3%" filterUnits="objectBoundingBox" id="filter-31">
            <feGaussianBlur stdDeviation="1.5" in="SourceAlpha" result="shadowBlurInner1"></feGaussianBlur>
            <feOffset dx="0" dy="1" in="shadowBlurInner1" result="shadowOffsetInner1"></feOffset>
            <feComposite in="shadowOffsetInner1" in2="SourceAlpha" operator="arithmetic" k2="-1" k3="1" result="shadowInnerInner1"></feComposite>
            <feColorMatrix values="0 0 0 0 1   0 0 0 0 1   0 0 0 0 1  0 0 0 1 0" type="matrix" in="shadowInnerInner1"></feColorMatrix>
        </filter>
    </defs>
    <g id="Page-1" stroke="none" stroke-width="1" fill="none" fill-rule="evenodd">
        <g id="Babsland" transform="translate(5.1562, 2.5625)" fill-rule="nonzero">
            <g id="Shape">
                <use fill="black" fill-opacity="1" filter="url(#filter-3)" xlink:href="#path-2"></use>
                <use fill="url(#linearGradient-1)" xlink:href="#path-2"></use>
                <use fill="black" fill-opacity="1" filter="url(#filter-4)" xlink:href="#path-2"></use>
                <use stroke="#FF0000" stroke-width="1" xlink:href="#path-2"></use>
            </g>
            <g id="Shape">
                <use fill="black" fill-opacity="1" filter="url(#filter-7)" xlink:href="#path-6"></use>
                <use fill="url(#linearGradient-5)" xlink:href="#path-6"></use>
                <use fill="black" fill-opacity="1" filter="url(#filter-8)" xlink:href="#path-6"></use>
                <use stroke="#FF0000" stroke-width="1" xlink:href="#path-6"></use>
            </g>
            <g id="Shape">
                <use fill="black" fill-opacity="1" filter="url(#filter-11)" xlink:href="#path-10"></use>
                <use fill="url(#linearGradient-9)" xlink:href="#path-10"></use>
                <use fill="black" fill-opacity="1" filter="url(#filter-12)" xlink:href="#path-10"></use>
                <use stroke="#FF0000" stroke-width="1" xlink:href="#path-10"></use>
            </g>
            <g id="Path">
                <use fill="black" fill-opacity="1" filter="url(#filter-15)" xlink:href="#path-14"></use>
                <use fill="url(#linearGradient-13)" xlink:href="#path-14"></use>
                <use fill="black" fill-opacity="1" filter="url(#filter-16)" xlink:href="#path-14"></use>
                <use stroke="#FF0000" stroke-width="1" xlink:href="#path-14"></use>
            </g>
            <g id="Path">
                <use fill="black" fill-opacity="1" filter="url(#filter-19)" xlink:href="#path-18"></use>
                <use fill="url(#linearGradient-17)" xlink:href="#path-18"></use>
                <use fill="black" fill-opacity="1" filter="url(#filter-20)" xlink:href="#path-18"></use>
                <use stroke="#FF0000" stroke-width="1" xlink:href="#path-18"></use>
            </g>
            <g id="Shape">
                <use fill="black" fill-opacity="1" filter="url(#filter-22)" xlink:href="#path-21"></use>
                <use fill="url(#linearGradient-5)" xlink:href="#path-21"></use>
                <use fill="black" fill-opacity="1" filter="url(#filter-23)" xlink:href="#path-21"></use>
                <use stroke="#FF0000" stroke-width="1" xlink:href="#path-21"></use>
            </g>
            <g id="Path">
                <use fill="black" fill-opacity="1" filter="url(#filter-26)" xlink:href="#path-25"></use>
                <use fill="url(#linearGradient-24)" xlink:href="#path-25"></use>
                <use fill="black" fill-opacity="1" filter="url(#filter-27)" xlink:href="#path-25"></use>
                <use stroke="#FF0000" stroke-width="1" xlink:href="#path-25"></use>
            </g>
            <g id="Shape">
                <use fill="black" fill-opacity="1" filter="url(#filter-30)" xlink:href="#path-29"></use>
                <use fill="url(#linearGradient-28)" xlink:href="#path-29"></use>
                <use fill="black" fill-opacity="1" filter="url(#filter-31)" xlink:href="#path-29"></use>
                <use stroke="#FF0000" stroke-width="1" xlink:href="#path-29"></use>
            </g>
        </g>
    </g>
</svg>